<svg version="1.1" xmlns="http://www.w3.org/2000/svg" viewBox="0 0 50 50">
	<g>
		<rect style="fill:#5468FF;" width="50" height="50"/>
		<path style="fill:#FFFFFF;" d="M30.21,11.16V9.45c0-1.2-0.97-2.17-2.17-2.17h-5.06c-1.2,0-2.17,0.97-2.17,2.17v1.76
		c0,0.2,0.18,0.33,0.38,0.29c1.43-0.41,2.91-0.62,4.4-0.62c1.44,0,2.87,0.19,4.25,0.57c0.16,0.04,0.32-0.06,0.36-0.21
		C30.21,11.21,30.21,11.19,30.21,11.16 M16.34,13.41l-0.86-0.86c-0.84-0.84-2.21-0.85-3.06-0.01c0,0,0,0-0.01,0.01l-1.03,1.03
		c-0.85,0.84-0.85,2.22,0,3.06c0,0,0,0,0,0l0.85,0.85c0.14,0.14,0.33,0.1,0.46-0.03c0.5-0.69,1.05-1.34,1.66-1.94
		c0.61-0.61,1.26-1.17,1.96-1.67C16.45,13.76,16.46,13.54,16.34,13.41 M25.58,18.85v7.42c0,0.21,0.23,0.37,0.43,0.26l6.59-3.41
		c0.15-0.07,0.2-0.26,0.12-0.41c-1.4-2.47-3.99-4.04-6.84-4.14C25.73,18.56,25.58,18.68,25.58,18.85 M25.58,36.72
		c-5.5,0-9.96-4.46-9.96-9.95s4.47-9.95,9.96-9.95c5.5,0,9.96,4.46,9.96,9.95S31.09,36.72,25.58,36.72 M25.58,12.63
		c-7.81,0-14.14,6.32-14.14,14.13c0,7.81,6.33,14.12,14.14,14.12s14.14-6.33,14.14-14.13C39.72,18.94,33.4,12.63,25.58,12.63"/>
	</g>
</svg>
